<svg width="119" height="130" viewBox="0 0 119 130" fill="none" xmlns="http://www.w3.org/2000/svg">
<rect y="0.712402" width="119" height="129" rx="16" fill="url(#paint0_radial_1_181)"/>
<path d="M19.4134 99.6215V112.712H17.4382V99.6215H19.4134ZM24.0476 99.6215V112.712H22.1364V99.6215H24.0476ZM28.53 99.6215V112.712H26.6188V99.6215H28.53ZM37.3207 108.641V102.894H39.2383V112.712H37.359V111.012H37.2567C37.0309 111.536 36.6687 111.973 36.1701 112.322C35.6758 112.668 35.06 112.84 34.3228 112.84C33.6921 112.84 33.1339 112.702 32.6481 112.425C32.1665 112.144 31.7873 111.728 31.5103 111.178C31.2376 110.629 31.1012 109.949 31.1012 109.139V102.894H33.0124V108.909C33.0124 109.578 33.1978 110.111 33.5685 110.507C33.9393 110.903 34.4208 111.102 35.0131 111.102C35.3711 111.102 35.7269 111.012 36.0806 110.833C36.4386 110.654 36.7347 110.384 36.9691 110.021C37.2077 109.659 37.3249 109.199 37.3207 108.641ZM49.1635 105.291L47.4313 105.598C47.3588 105.376 47.2438 105.166 47.0861 104.965C46.9327 104.765 46.7239 104.601 46.4597 104.473C46.1955 104.345 45.8652 104.281 45.4689 104.281C44.9277 104.281 44.476 104.403 44.1138 104.646C43.7516 104.884 43.5705 105.193 43.5705 105.572C43.5705 105.901 43.6919 106.165 43.9348 106.365C44.1777 106.565 44.5698 106.729 45.111 106.857L46.6706 107.215C47.574 107.424 48.2473 107.746 48.6905 108.18C49.1337 108.615 49.3553 109.18 49.3553 109.874C49.3553 110.462 49.1848 110.987 48.8439 111.447C48.5073 111.903 48.0364 112.261 47.4313 112.521C46.8304 112.781 46.1337 112.911 45.3411 112.911C44.2417 112.911 43.3446 112.676 42.65 112.207C41.9554 111.734 41.5293 111.063 41.3716 110.194L43.2189 109.913C43.334 110.394 43.5705 110.759 43.9284 111.006C44.2864 111.249 44.753 111.37 45.3283 111.37C45.9547 111.37 46.4554 111.24 46.8304 110.98C47.2054 110.716 47.3929 110.394 47.3929 110.015C47.3929 109.708 47.2779 109.45 47.0478 109.242C46.8219 109.033 46.4746 108.875 46.0059 108.769L44.3439 108.404C43.4277 108.195 42.7502 107.863 42.3113 107.407C41.8766 106.951 41.6593 106.374 41.6593 105.675C41.6593 105.095 41.8212 104.588 42.1451 104.153C42.4689 103.719 42.9164 103.38 43.4874 103.137C44.0584 102.89 44.7125 102.766 45.4498 102.766C46.5108 102.766 47.3461 102.996 47.9554 103.457C48.5648 103.913 48.9675 104.524 49.1635 105.291ZM56.0398 102.894V104.428H50.6768V102.894H56.0398ZM52.1151 100.542H54.0263V109.83C54.0263 110.2 54.0817 110.479 54.1925 110.667C54.3033 110.85 54.446 110.976 54.6207 111.044C54.7997 111.108 54.9936 111.14 55.2024 111.14C55.3558 111.14 55.4901 111.129 55.6051 111.108C55.7202 111.087 55.8097 111.07 55.8736 111.057L56.2188 112.636C56.108 112.678 55.9503 112.721 55.7457 112.764C55.5412 112.81 55.2855 112.836 54.9787 112.84C54.4759 112.849 54.0071 112.759 53.5724 112.572C53.1378 112.384 52.7862 112.095 52.5178 111.702C52.2493 111.31 52.1151 110.818 52.1151 110.226V100.542ZM58.1539 112.712V102.894H60.0012V104.454H60.1035C60.2825 103.925 60.5978 103.51 61.0495 103.207C61.5055 102.901 62.0211 102.747 62.5964 102.747C62.7157 102.747 62.8564 102.751 63.0183 102.76C63.1845 102.769 63.3145 102.779 63.4082 102.792V104.62C63.3315 104.599 63.1951 104.575 62.9991 104.55C62.8031 104.52 62.6071 104.505 62.411 104.505C61.9593 104.505 61.5566 104.601 61.2029 104.793C60.8535 104.98 60.5765 105.242 60.372 105.579C60.1674 105.911 60.0652 106.291 60.0652 106.717V112.712H58.1539ZM67.8315 112.93C67.2093 112.93 66.6468 112.815 66.144 112.585C65.6412 112.35 65.2427 112.011 64.9487 111.568C64.6589 111.125 64.514 110.582 64.514 109.938C64.514 109.384 64.6206 108.928 64.8336 108.57C65.0467 108.212 65.3343 107.929 65.6966 107.72C66.0588 107.511 66.4636 107.354 66.911 107.247C67.3585 107.141 67.8145 107.06 68.2789 107.004C68.867 106.936 69.3443 106.881 69.7108 106.838C70.0772 106.791 70.3436 106.717 70.5098 106.614C70.676 106.512 70.7591 106.346 70.7591 106.116V106.071C70.7591 105.513 70.6014 105.08 70.286 104.773C69.975 104.467 69.5105 104.313 68.8926 104.313C68.2491 104.313 67.742 104.456 67.3713 104.742C67.0048 105.023 66.7512 105.336 66.6106 105.681L64.8145 105.272C65.0275 104.675 65.3386 104.194 65.7477 103.827C66.161 103.457 66.6362 103.188 67.1731 103.022C67.71 102.852 68.2747 102.766 68.867 102.766C69.2591 102.766 69.6745 102.813 70.1135 102.907C70.5566 102.996 70.97 103.163 71.3535 103.406C71.7413 103.648 72.0588 103.996 72.3059 104.447C72.5531 104.895 72.6767 105.477 72.6767 106.193V112.712H70.8102V111.37H70.7335C70.6099 111.617 70.4245 111.86 70.1774 112.099C69.9302 112.337 69.6127 112.536 69.225 112.693C68.8372 112.851 68.3727 112.93 67.8315 112.93ZM68.247 111.396C68.7754 111.396 69.2271 111.291 69.6021 111.082C69.9814 110.874 70.269 110.601 70.465 110.264C70.6653 109.923 70.7654 109.559 70.7654 109.171V107.906C70.6973 107.974 70.5652 108.038 70.3691 108.097C70.1774 108.153 69.9579 108.202 69.7108 108.244C69.4636 108.283 69.2228 108.319 68.9885 108.353C68.7541 108.383 68.5581 108.408 68.4004 108.43C68.0297 108.477 67.6909 108.555 67.3841 108.666C67.0815 108.777 66.8386 108.937 66.6554 109.146C66.4764 109.35 66.3869 109.623 66.3869 109.964C66.3869 110.437 66.5616 110.795 66.911 111.038C67.2605 111.276 67.7058 111.396 68.247 111.396ZM79.8054 102.894V104.428H74.4425V102.894H79.8054ZM75.8807 100.542H77.7919V109.83C77.7919 110.2 77.8473 110.479 77.9581 110.667C78.0689 110.85 78.2116 110.976 78.3864 111.044C78.5653 111.108 78.7592 111.14 78.968 111.14C79.1214 111.14 79.2557 111.129 79.3707 111.108C79.4858 111.087 79.5753 111.07 79.6392 111.057L79.9844 112.636C79.8736 112.678 79.7159 112.721 79.5114 112.764C79.3068 112.81 79.0511 112.836 78.7443 112.84C78.2415 112.849 77.7727 112.759 77.3381 112.572C76.9034 112.384 76.5518 112.095 76.2834 111.702C76.0149 111.31 75.8807 110.818 75.8807 110.226V100.542ZM81.9196 112.712V102.894H83.8308V112.712H81.9196ZM82.8848 101.379C82.5524 101.379 82.2669 101.269 82.0282 101.047C81.7939 100.821 81.6767 100.553 81.6767 100.242C81.6767 99.9262 81.7939 99.6577 82.0282 99.4361C82.2669 99.2103 82.5524 99.0973 82.8848 99.0973C83.2172 99.0973 83.5005 99.2103 83.7349 99.4361C83.9735 99.6577 84.0929 99.9262 84.0929 100.242C84.0929 100.553 83.9735 100.821 83.7349 101.047C83.5005 101.269 83.2172 101.379 82.8848 101.379ZM90.5376 112.911C89.6172 112.911 88.8139 112.7 88.1278 112.278C87.4418 111.856 86.9091 111.266 86.5298 110.507C86.1506 109.749 85.9609 108.862 85.9609 107.848C85.9609 106.83 86.1506 105.939 86.5298 105.176C86.9091 104.413 87.4418 103.821 88.1278 103.399C88.8139 102.977 89.6172 102.766 90.5376 102.766C91.4581 102.766 92.2614 102.977 92.9474 103.399C93.6335 103.821 94.1662 104.413 94.5455 105.176C94.9247 105.939 95.1143 106.83 95.1143 107.848C95.1143 108.862 94.9247 109.749 94.5455 110.507C94.1662 111.266 93.6335 111.856 92.9474 112.278C92.2614 112.7 91.4581 112.911 90.5376 112.911ZM90.544 111.306C91.1406 111.306 91.6349 111.148 92.027 110.833C92.419 110.518 92.7088 110.098 92.8963 109.574C93.0881 109.05 93.1839 108.472 93.1839 107.842C93.1839 107.215 93.0881 106.64 92.8963 106.116C92.7088 105.587 92.419 105.163 92.027 104.844C91.6349 104.524 91.1406 104.364 90.544 104.364C89.9432 104.364 89.4446 104.524 89.0483 104.844C88.6563 105.163 88.3643 105.587 88.1726 106.116C87.9851 106.64 87.8913 107.215 87.8913 107.842C87.8913 108.472 87.9851 109.05 88.1726 109.574C88.3643 110.098 88.6563 110.518 89.0483 110.833C89.4446 111.148 89.9432 111.306 90.544 111.306ZM99.1589 106.883V112.712H97.2477V102.894H99.0822V104.492H99.2037C99.4295 103.972 99.7832 103.555 100.265 103.239C100.751 102.924 101.362 102.766 102.099 102.766C102.768 102.766 103.354 102.907 103.857 103.188C104.36 103.465 104.75 103.879 105.027 104.428C105.304 104.978 105.442 105.658 105.442 106.467V112.712H103.531V106.697C103.531 105.986 103.346 105.43 102.975 105.029C102.604 104.624 102.095 104.422 101.447 104.422C101.004 104.422 100.61 104.518 100.265 104.71C99.9238 104.901 99.6532 105.183 99.4529 105.553C99.2569 105.92 99.1589 106.363 99.1589 106.883Z" fill="white"/>
<rect x="39" y="18.7124" width="40" height="57" rx="3" fill="#01D971"/>
<rect x="36" y="18.7124" width="40" height="57" rx="3" fill="#02FE84"/>
<rect x="47" y="60.7124" width="16" height="5" rx="2" fill="white"/>
<path d="M82.453 32.2874C83.8569 30.8826 86.1479 30.9286 87.4943 32.3887C88.8407 33.8487 88.7013 36.1359 87.1875 37.4216L66.9875 54.5788C66.0009 55.4168 64.5289 55.327 63.6513 54.3754C62.7738 53.4238 62.8034 51.9493 63.7185 51.0337L82.453 32.2874Z" fill="#01D971"/>
<path d="M64.8486 49.8245C64.0892 49.4717 62.5318 50.6715 62.0311 51.1698L66.8441 55.7135C67.3199 55.4345 68.5944 54.3802 68.421 53.5611C68.2042 52.5373 65.7977 50.2654 64.8486 49.8245Z" fill="white"/>
<path d="M55.1218 63.2498C55.4415 63.3354 58.302 60.3331 62.161 59.9967C67.0596 59.5697 69.6745 52.4166 63.1952 51.0229C58.299 49.9697 54.8022 63.1641 55.1218 63.2498Z" fill="#2F2F2F"/>
<circle cx="82.5" cy="65.2124" r="10.5" fill="#01D971"/>
<circle cx="80.5" cy="63.2124" r="7.5" fill="#02FE84"/>
<circle cx="63" cy="26.7124" r="4" fill="white"/>
<path fill-rule="evenodd" clip-rule="evenodd" d="M36 60.8569V56.8144C37.7414 56.5414 39.5843 56.0761 41.3911 55.3499C45.7442 53.6003 49.8204 50.3737 51.8999 44.6743C52.085 44.1668 52.2499 43.6808 52.3959 43.2157C51.5466 43.238 50.7334 43.2204 49.9651 43.164C47.5144 42.9841 45.1541 42.3833 43.6281 41.0538C42.8141 40.3446 42.2016 39.3904 42.0457 38.2097C41.8932 37.0543 42.2099 35.9259 42.7829 34.8966C43.865 32.9529 45.579 31.4928 47.4432 30.6905C49.2894 29.8958 51.4791 29.6723 53.4213 30.5376C55.4569 31.4444 56.8185 33.3658 57.2308 36.0194C57.3544 36.8149 57.3953 37.6811 57.3484 38.6199C60.3019 38.0265 63.5027 36.9824 66.6022 35.4252C70.9935 33.219 73.9706 31.3877 76 29.9197V34.7478C74.0106 36.0157 71.5224 37.4297 68.3979 38.9995C64.4979 40.9589 60.4087 42.2077 56.6719 42.8061C56.4107 43.8253 56.0737 44.9047 55.6576 46.0453C53.1118 53.0226 48.0603 56.9804 42.8828 59.0613C40.562 59.9941 38.2026 60.5573 36 60.8569ZM53.2783 36.6336C53.3838 37.3126 53.4036 38.1523 53.2935 39.1706C52.2021 39.2427 51.182 39.2426 50.2579 39.1748C48.0776 39.0147 46.7909 38.5041 46.2558 38.0379C46.0393 37.8493 46.0177 37.7346 46.0113 37.6861C46.0016 37.6124 45.9944 37.3515 46.2779 36.8422C46.9089 35.7086 47.9301 34.8357 49.0246 34.3646C50.137 33.8858 51.1292 33.8955 51.7935 34.1914C52.3644 34.4457 53.0338 35.0605 53.2783 36.6336Z" fill="white"/>
<defs>
<radialGradient id="paint0_radial_1_181" cx="0" cy="0" r="1" gradientUnits="userSpaceOnUse" gradientTransform="translate(59.5 37.5695) rotate(77.2662) scale(159.193 145.43)">
<stop offset="0.352514" stop-color="#2F2F2F"/>
<stop offset="1" stop-color="#01FE84"/>
</radialGradient>
</defs>
</svg>
