<svg width="181" height="62" viewBox="0 0 181 62" fill="none" xmlns="http://www.w3.org/2000/svg">
<rect x="11" y="9.5" width="35" height="35" rx="10.6944" fill="#01FE84"/>
<g filter="url(#filter0_d_1_7)">
<path d="M35 37C35.5304 37 36.0391 36.7893 36.4142 36.4142C36.7893 36.0391 37 35.5304 37 35V19C37 18.4696 36.7893 17.9609 36.4142 17.5858C36.0391 17.2107 35.5304 17 35 17H29V24L26.5 22.5L24 24V17H23C22.4696 17 21.9609 17.2107 21.5858 17.5858C21.2107 17.9609 21 18.4696 21 19V35C21 35.5304 21.2107 36.0391 21.5858 36.4142C21.9609 36.7893 22.4696 37 23 37H35Z" fill="white"/>
</g>
<path d="M59.892 36V18.5455H63.5824V32.9574H71.0653V36H59.892ZM79.407 36.2557C78.0604 36.2557 76.9013 35.983 75.9297 35.4375C74.9638 34.8864 74.2195 34.108 73.6967 33.1023C73.174 32.0909 72.9126 30.8949 72.9126 29.5142C72.9126 28.1676 73.174 26.9858 73.6967 25.9688C74.2195 24.9517 74.9553 24.1591 75.9041 23.5909C76.8587 23.0227 77.978 22.7386 79.2621 22.7386C80.1257 22.7386 80.9297 22.8778 81.674 23.1562C82.424 23.429 83.0774 23.8409 83.6342 24.392C84.1967 24.9432 84.6342 25.6364 84.9467 26.4716C85.2592 27.3011 85.4155 28.2727 85.4155 29.3864V30.3835H74.3615V28.1335H81.9979C81.9979 27.6108 81.8842 27.1477 81.657 26.7443C81.4297 26.3409 81.1143 26.0256 80.7109 25.7983C80.3132 25.5653 79.8501 25.4489 79.3217 25.4489C78.7706 25.4489 78.282 25.5767 77.8558 25.8324C77.4354 26.0824 77.1058 26.4205 76.8672 26.8466C76.6286 27.267 76.5064 27.7358 76.5007 28.2528V30.392C76.5007 31.0398 76.62 31.5994 76.8587 32.071C77.103 32.5426 77.4467 32.9062 77.8899 33.1619C78.3331 33.4176 78.8587 33.5455 79.4666 33.5455C79.87 33.5455 80.2393 33.4886 80.5746 33.375C80.9098 33.2614 81.1967 33.0909 81.4354 32.8636C81.674 32.6364 81.8558 32.358 81.9808 32.0284L85.3388 32.25C85.1683 33.0568 84.8189 33.7614 84.2905 34.3636C83.7678 34.9602 83.0916 35.4261 82.2621 35.7614C81.4382 36.0909 80.4865 36.2557 79.407 36.2557ZM87.7848 36V22.9091H91.3047V25.1932H91.4411C91.6797 24.3807 92.0803 23.767 92.6428 23.3523C93.2053 22.9318 93.853 22.7216 94.5859 22.7216C94.7678 22.7216 94.9638 22.733 95.174 22.7557C95.3842 22.7784 95.5689 22.8097 95.728 22.8494V26.071C95.5575 26.0199 95.3217 25.9744 95.0206 25.9347C94.7195 25.8949 94.4439 25.875 94.1939 25.875C93.6598 25.875 93.1825 25.9915 92.7621 26.2244C92.3473 26.4517 92.0178 26.7699 91.7734 27.179C91.5348 27.5881 91.4155 28.0597 91.4155 28.5938V36H87.7848ZM101.236 28.4318V36H97.6051V22.9091H101.065V25.2188H101.219C101.509 24.4574 101.994 23.8551 102.676 23.4119C103.358 22.9631 104.185 22.7386 105.156 22.7386C106.065 22.7386 106.858 22.9375 107.534 23.3352C108.21 23.733 108.736 24.3011 109.111 25.0398C109.486 25.7727 109.673 26.6477 109.673 27.6648V36H106.043V28.3125C106.048 27.5114 105.844 26.8864 105.429 26.4375C105.014 25.983 104.443 25.7557 103.716 25.7557C103.227 25.7557 102.795 25.8608 102.42 26.071C102.051 26.2812 101.761 26.5881 101.551 26.9915C101.347 27.3892 101.241 27.8693 101.236 28.4318ZM119.498 22.9091V25.6364H111.614V22.9091H119.498ZM113.404 19.7727H117.035V31.9773C117.035 32.3125 117.086 32.5739 117.188 32.7614C117.29 32.9432 117.433 33.071 117.614 33.1449C117.802 33.2187 118.018 33.2557 118.262 33.2557C118.433 33.2557 118.603 33.2415 118.773 33.2131C118.944 33.179 119.075 33.1534 119.165 33.1364L119.737 35.8381C119.555 35.8949 119.299 35.9602 118.969 36.0341C118.64 36.1136 118.239 36.1619 117.768 36.179C116.893 36.2131 116.126 36.0966 115.467 35.8295C114.813 35.5625 114.305 35.1477 113.941 34.5852C113.577 34.0227 113.398 33.3125 113.404 32.4545V19.7727ZM127.637 36.2557C126.313 36.2557 125.168 35.9744 124.202 35.4119C123.242 34.8437 122.501 34.054 121.978 33.0426C121.455 32.0256 121.194 30.8466 121.194 29.5057C121.194 28.1534 121.455 26.9716 121.978 25.9602C122.501 24.9432 123.242 24.1534 124.202 23.5909C125.168 23.0227 126.313 22.7386 127.637 22.7386C128.961 22.7386 130.103 23.0227 131.063 23.5909C132.029 24.1534 132.773 24.9432 133.296 25.9602C133.819 26.9716 134.08 28.1534 134.08 29.5057C134.08 30.8466 133.819 32.0256 133.296 33.0426C132.773 34.054 132.029 34.8437 131.063 35.4119C130.103 35.9744 128.961 36.2557 127.637 36.2557ZM127.654 33.4432C128.256 33.4432 128.759 33.2727 129.163 32.9318C129.566 32.5852 129.87 32.1136 130.075 31.517C130.285 30.9205 130.39 30.2415 130.39 29.4801C130.39 28.7188 130.285 28.0398 130.075 27.4432C129.87 26.8466 129.566 26.375 129.163 26.0284C128.759 25.6818 128.256 25.5085 127.654 25.5085C127.046 25.5085 126.535 25.6818 126.12 26.0284C125.711 26.375 125.401 26.8466 125.191 27.4432C124.987 28.0398 124.884 28.7188 124.884 29.4801C124.884 30.2415 124.987 30.9205 125.191 31.517C125.401 32.1136 125.711 32.5852 126.12 32.9318C126.535 33.2727 127.046 33.4432 127.654 33.4432ZM140.072 18.5455V36H136.441V18.5455H140.072ZM148.946 36.2557C147.599 36.2557 146.44 35.983 145.469 35.4375C144.503 34.8864 143.759 34.108 143.236 33.1023C142.713 32.0909 142.452 30.8949 142.452 29.5142C142.452 28.1676 142.713 26.9858 143.236 25.9688C143.759 24.9517 144.494 24.1591 145.443 23.5909C146.398 23.0227 147.517 22.7386 148.801 22.7386C149.665 22.7386 150.469 22.8778 151.213 23.1562C151.963 23.429 152.616 23.8409 153.173 24.392C153.736 24.9432 154.173 25.6364 154.486 26.4716C154.798 27.3011 154.955 28.2727 154.955 29.3864V30.3835H143.901V28.1335H151.537C151.537 27.6108 151.423 27.1477 151.196 26.7443C150.969 26.3409 150.653 26.0256 150.25 25.7983C149.852 25.5653 149.389 25.4489 148.861 25.4489C148.31 25.4489 147.821 25.5767 147.395 25.8324C146.974 26.0824 146.645 26.4205 146.406 26.8466C146.168 27.267 146.045 27.7358 146.04 28.2528V30.392C146.04 31.0398 146.159 31.5994 146.398 32.071C146.642 32.5426 146.986 32.9062 147.429 33.1619C147.872 33.4176 148.398 33.5455 149.006 33.5455C149.409 33.5455 149.778 33.4886 150.114 33.375C150.449 33.2614 150.736 33.0909 150.974 32.8636C151.213 32.6364 151.395 32.358 151.52 32.0284L154.878 32.25C154.707 33.0568 154.358 33.7614 153.83 34.3636C153.307 34.9602 152.631 35.4261 151.801 35.7614C150.977 36.0909 150.026 36.2557 148.946 36.2557ZM157.324 36V22.9091H160.844V25.1932H160.98C161.219 24.3807 161.619 23.767 162.182 23.3523C162.744 22.9318 163.392 22.7216 164.125 22.7216C164.307 22.7216 164.503 22.733 164.713 22.7557C164.923 22.7784 165.108 22.8097 165.267 22.8494V26.071C165.097 26.0199 164.861 25.9744 164.56 25.9347C164.259 25.8949 163.983 25.875 163.733 25.875C163.199 25.875 162.722 25.9915 162.301 26.2244C161.886 26.4517 161.557 26.7699 161.312 27.179C161.074 27.5881 160.955 28.0597 160.955 28.5938V36H157.324ZM170.775 28.4318V36H167.144V22.9091H170.604V25.2188H170.758C171.048 24.4574 171.533 23.8551 172.215 23.4119C172.897 22.9631 173.724 22.7386 174.695 22.7386C175.604 22.7386 176.397 22.9375 177.073 23.3352C177.749 23.733 178.275 24.3011 178.65 25.0398C179.025 25.7727 179.212 26.6477 179.212 27.6648V36H175.582V28.3125C175.587 27.5114 175.383 26.8864 174.968 26.4375C174.553 25.983 173.982 25.7557 173.255 25.7557C172.766 25.7557 172.335 25.8608 171.96 26.071C171.59 26.2812 171.3 26.5881 171.09 26.9915C170.886 27.3892 170.781 27.8693 170.775 28.4318Z" fill="white"/>
<defs>
<filter id="filter0_d_1_7" x="-4" y="-2" width="66" height="66" filterUnits="userSpaceOnUse" color-interpolation-filters="sRGB">
<feFlood flood-opacity="0" result="BackgroundImageFix"/>
<feColorMatrix in="SourceAlpha" type="matrix" values="0 0 0 0 0 0 0 0 0 0 0 0 0 0 0 0 0 0 127 0" result="hardAlpha"/>
<feOffset dy="4"/>
<feGaussianBlur stdDeviation="10.5"/>
<feComposite in2="hardAlpha" operator="out"/>
<feColorMatrix type="matrix" values="0 0 0 0 0 0 0 0 0 0.458333 0 0 0 0 0.236442 0 0 0 1 0"/>
<feBlend mode="normal" in2="BackgroundImageFix" result="effect1_dropShadow_1_7"/>
<feBlend mode="normal" in="SourceGraphic" in2="effect1_dropShadow_1_7" result="shape"/>
</filter>
</defs>
</svg>
