<svg width="119" height="130" viewBox="0 0 119 130" fill="none" xmlns="http://www.w3.org/2000/svg">
<rect y="0.212341" width="119" height="129" rx="16" fill="url(#paint0_radial_1_207)"/>
<path d="M41.4382 112.212V99.1214H43.4134V110.512H49.3452V112.212H41.4382ZM55.5806 112.41C54.6602 112.41 53.8569 112.2 53.1708 111.778C52.4847 111.356 51.9521 110.766 51.5728 110.007C51.1935 109.249 51.0039 108.362 51.0039 107.348C51.0039 106.33 51.1935 105.439 51.5728 104.676C51.9521 103.913 52.4847 103.321 53.1708 102.899C53.8569 102.477 54.6602 102.266 55.5806 102.266C56.5011 102.266 57.3043 102.477 57.9904 102.899C58.6765 103.321 59.2092 103.913 59.5884 104.676C59.9677 105.439 60.1573 106.33 60.1573 107.348C60.1573 108.362 59.9677 109.249 59.5884 110.007C59.2092 110.766 58.6765 111.356 57.9904 111.778C57.3043 112.2 56.5011 112.41 55.5806 112.41ZM55.587 110.806C56.1836 110.806 56.6779 110.648 57.07 110.333C57.462 110.018 57.7518 109.598 57.9393 109.074C58.131 108.55 58.2269 107.972 58.2269 107.342C58.2269 106.715 58.131 106.14 57.9393 105.616C57.7518 105.087 57.462 104.663 57.07 104.344C56.6779 104.024 56.1836 103.864 55.587 103.864C54.9862 103.864 54.4876 104.024 54.0913 104.344C53.6992 104.663 53.4073 105.087 53.2156 105.616C53.0281 106.14 52.9343 106.715 52.9343 107.342C52.9343 107.972 53.0281 108.55 53.2156 109.074C53.4073 109.598 53.6992 110.018 54.0913 110.333C54.4876 110.648 54.9862 110.806 55.587 110.806ZM66.4071 116.099C65.6273 116.099 64.9561 115.996 64.3936 115.792C63.8354 115.587 63.3794 115.317 63.0257 114.98C62.6721 114.643 62.4078 114.275 62.2331 113.874L63.8759 113.197C63.9909 113.384 64.1444 113.582 64.3361 113.791C64.5321 114.004 64.7963 114.185 65.1287 114.335C65.4654 114.484 65.8979 114.558 66.4263 114.558C67.1507 114.558 67.7495 114.381 68.2225 114.028C68.6955 113.678 68.932 113.12 68.932 112.353V110.423H68.8105C68.6955 110.631 68.5293 110.864 68.312 111.119C68.0989 111.375 67.8049 111.597 67.4299 111.784C67.0549 111.972 66.5669 112.065 65.9661 112.065C65.1905 112.065 64.4917 111.884 63.8695 111.522C63.2516 111.156 62.7615 110.616 62.3993 109.905C62.0414 109.189 61.8624 108.309 61.8624 107.265C61.8624 106.221 62.0392 105.326 62.3929 104.58C62.7509 103.835 63.2409 103.263 63.8631 102.867C64.4853 102.467 65.1905 102.266 65.9789 102.266C66.5882 102.266 67.0804 102.369 67.4554 102.573C67.8304 102.773 68.1223 103.008 68.3311 103.276C68.5442 103.545 68.7083 103.781 68.8233 103.986H68.964V102.394H70.8368V112.43C70.8368 113.273 70.6408 113.966 70.2488 114.507C69.8567 115.048 69.3262 115.449 68.6571 115.709C67.9924 115.969 67.2424 116.099 66.4071 116.099ZM66.388 110.48C66.9377 110.48 67.4022 110.352 67.7814 110.097C68.165 109.837 68.4547 109.466 68.6507 108.984C68.851 108.499 68.9512 107.917 68.9512 107.239C68.9512 106.579 68.8532 105.997 68.6571 105.494C68.4611 104.991 68.1735 104.599 67.7942 104.318C67.415 104.033 66.9462 103.89 66.388 103.89C65.8127 103.89 65.3333 104.039 64.9498 104.337C64.5662 104.631 64.2765 105.032 64.0804 105.539C63.8887 106.046 63.7928 106.613 63.7928 107.239C63.7928 107.883 63.8908 108.447 64.0868 108.933C64.2828 109.419 64.5726 109.798 64.9561 110.071C65.3439 110.344 65.8212 110.48 66.388 110.48ZM77.5357 112.41C76.6152 112.41 75.812 112.2 75.1259 111.778C74.4398 111.356 73.9071 110.766 73.5279 110.007C73.1486 109.249 72.959 108.362 72.959 107.348C72.959 106.33 73.1486 105.439 73.5279 104.676C73.9071 103.913 74.4398 103.321 75.1259 102.899C75.812 102.477 76.6152 102.266 77.5357 102.266C78.4561 102.266 79.2594 102.477 79.9455 102.899C80.6316 103.321 81.1642 103.913 81.5435 104.676C81.9228 105.439 82.1124 106.33 82.1124 107.348C82.1124 108.362 81.9228 109.249 81.5435 110.007C81.1642 110.766 80.6316 111.356 79.9455 111.778C79.2594 112.2 78.4561 112.41 77.5357 112.41ZM77.5421 110.806C78.1387 110.806 78.633 110.648 79.025 110.333C79.4171 110.018 79.7069 109.598 79.8944 109.074C80.0861 108.55 80.182 107.972 80.182 107.342C80.182 106.715 80.0861 106.14 79.8944 105.616C79.7069 105.087 79.4171 104.663 79.025 104.344C78.633 104.024 78.1387 103.864 77.5421 103.864C76.9412 103.864 76.4426 104.024 76.0463 104.344C75.6543 104.663 75.3624 105.087 75.1706 105.616C74.9831 106.14 74.8894 106.715 74.8894 107.342C74.8894 107.972 74.9831 108.55 75.1706 109.074C75.3624 109.598 75.6543 110.018 76.0463 110.333C76.4426 110.648 76.9412 110.806 77.5421 110.806Z" fill="white"/>
<path d="M61.0107 20.755C62.2841 20.4077 63.6435 20.5836 64.7866 21.2435L85.1152 32.9803C86.9716 34.0521 88.1152 36.0328 88.1152 38.1764V60.2482C88.1152 62.3918 86.9716 64.3726 85.1152 65.4444L64.9592 77.0815C63.6968 77.8103 62.2121 78.0547 60.7826 77.7688L60.5049 77.7133C57.6196 77.1362 55.5786 74.5521 55.6855 71.6117L57.3678 25.3489C57.4464 23.1855 58.9222 21.3245 61.0107 20.755Z" fill="#01D971"/>
<path d="M57 13.9444C58.8564 12.8726 61.1436 12.8726 63 13.9444L85.5788 26.9803C87.4352 28.0521 88.5788 30.0329 88.5788 32.1764V58.2482C88.5788 60.3918 87.4352 62.3726 85.5788 63.4444L63 76.4803C61.1436 77.5521 58.8564 77.5521 57 76.4803L34.4212 63.4444C32.5648 62.3726 31.4212 60.3918 31.4212 58.2482V32.1764C31.4212 30.0329 32.5648 28.0521 34.4212 26.9803L57 13.9444Z" fill="#02FE84"/>
<path d="M58.5 29.5425C59.4282 29.0066 60.5718 29.0066 61.5 29.5425L72.8205 36.0784C73.7487 36.6143 74.3205 37.6046 74.3205 38.6764V51.7482C74.3205 52.82 73.7487 53.8104 72.8205 54.3463L61.5 60.8822C60.5718 61.4181 59.4282 61.4181 58.5 60.8822L47.1795 54.3463C46.2513 53.8104 45.6795 52.82 45.6795 51.7482V38.6764C45.6795 37.6046 46.2513 36.6143 47.1795 36.0784L58.5 29.5425Z" stroke="white" stroke-width="6"/>
<defs>
<radialGradient id="paint0_radial_1_207" cx="0" cy="0" r="1" gradientUnits="userSpaceOnUse" gradientTransform="translate(59.5 37.0695) rotate(77.2662) scale(159.193 145.43)">
<stop offset="0.352514" stop-color="#2F2F2F"/>
<stop offset="1" stop-color="#01FE84"/>
</radialGradient>
</defs>
</svg>
