<svg width="16" height="17" viewBox="0 0 16 17" fill="none" xmlns="http://www.w3.org/2000/svg">
<path d="M9.99967 1.75806H5.99967C5.63148 1.75806 5.33301 2.05653 5.33301 2.42472V3.75806C5.33301 4.12625 5.63148 4.42472 5.99967 4.42472H9.99967C10.3679 4.42472 10.6663 4.12625 10.6663 3.75806V2.42472C10.6663 2.05653 10.3679 1.75806 9.99967 1.75806Z" fill="#01FE84"/>
<path fill-rule="evenodd" clip-rule="evenodd" d="M4 3.09155C3.6465 3.09164 3.30749 3.23211 3.05752 3.48208C2.80747 3.73213 2.66699 4.07126 2.66699 4.42489V13.7582C2.66699 14.1118 2.80747 14.451 3.05752 14.701C3.30756 14.9511 3.6467 15.0916 4.00033 15.0916H12.0003C12.3539 15.0916 12.6931 14.9511 12.9431 14.701C13.1932 14.451 13.3337 14.1118 13.3337 13.7582V4.42489C13.3337 4.07126 13.1932 3.73213 12.9431 3.48208C12.6931 3.23203 12.3539 3.09155 12.0003 3.09155H12V3.75814C12 4.86271 11.1046 5.75814 10 5.75814H6C4.89543 5.75814 4 4.86271 4 3.75814V3.09155ZM5.33333 3.09155H5.33366H10.6667V3.75814C10.6667 4.12633 10.3682 4.4248 10 4.4248H6C5.63181 4.4248 5.33333 4.12633 5.33333 3.75814V3.09155Z" fill="#01FE84"/>
</svg>
