<svg width="119" height="133" viewBox="0 0 119 133" fill="none" xmlns="http://www.w3.org/2000/svg">
<rect y="0.712402" width="119" height="132" rx="16" fill="url(#paint0_radial_1_195)"/>
<path d="M44.8565 99.6215H46.8381V108.232C46.8381 109.148 46.6229 109.96 46.1925 110.667C45.7621 111.37 45.157 111.924 44.3771 112.329C43.5973 112.729 42.6832 112.93 41.6349 112.93C40.5909 112.93 39.679 112.729 38.8991 112.329C38.1193 111.924 37.5142 111.37 37.0838 110.667C36.6534 109.96 36.4382 109.148 36.4382 108.232V99.6215H38.4134V108.072C38.4134 108.664 38.5433 109.19 38.8033 109.651C39.0675 110.111 39.4403 110.473 39.9219 110.737C40.4034 110.997 40.9744 111.127 41.6349 111.127C42.2997 111.127 42.8729 110.997 43.3544 110.737C43.8402 110.473 44.2109 110.111 44.4666 109.651C44.7266 109.19 44.8565 108.664 44.8565 108.072V99.6215ZM51.6848 99.6215V112.712H49.7097V99.6215H51.6848ZM59.3936 99.0079L55.1749 114.681H53.4682L57.687 99.0079H59.3936ZM69.589 99.6215H71.5705V108.232C71.5705 109.148 71.3553 109.96 70.9249 110.667C70.4945 111.37 69.8894 111.924 69.1096 112.329C68.3297 112.729 67.4157 112.93 66.3674 112.93C65.3233 112.93 64.4114 112.729 63.6316 112.329C62.8517 111.924 62.2466 111.37 61.8162 110.667C61.3858 109.96 61.1706 109.148 61.1706 108.232V99.6215H63.1458V108.072C63.1458 108.664 63.2757 109.19 63.5357 109.651C63.7999 110.111 64.1728 110.473 64.6543 110.737C65.1358 110.997 65.7069 111.127 66.3674 111.127C67.0321 111.127 67.6053 110.997 68.0868 110.737C68.5726 110.473 68.9434 110.111 69.199 109.651C69.459 109.19 69.589 108.664 69.589 108.072V99.6215ZM75.8164 99.6215L78.9485 104.742H79.0508L82.1829 99.6215H84.4712L80.3931 106.167L84.4968 112.712H82.1957L79.0508 107.663H78.9485L75.8036 112.712H73.5025L77.6765 106.167L73.5281 99.6215H75.8164Z" fill="white"/>
<rect x="32" y="16.7124" width="63" height="65" rx="5" fill="#01D971"/>
<rect x="24" y="16.7124" width="67" height="65" rx="5" fill="#02FE84"/>
<rect x="30" y="28.7124" width="55" height="32" rx="5" fill="white"/>
<rect opacity="0.48" width="55" height="5" rx="2.5" transform="matrix(1 0 0 -1 30 68.7124)" fill="#00B15C"/>
<rect opacity="0.48" width="55" height="5" rx="2.5" transform="matrix(1 0 0 -1 30 76.7124)" fill="#00B15C"/>
<rect x="30" y="20.7124" width="4" height="4" rx="2" fill="#2F2F2F"/>
<rect x="37" y="20.7124" width="4" height="4" rx="2" fill="#2F2F2F"/>
<rect x="44" y="20.7124" width="4" height="4" rx="2" fill="#2F2F2F"/>
<defs>
<radialGradient id="paint0_radial_1_195" cx="0" cy="0" r="1" gradientUnits="userSpaceOnUse" gradientTransform="translate(59.5 38.4267) rotate(77.5464) scale(162.717 145.589)">
<stop offset="0.352514" stop-color="#2F2F2F"/>
<stop offset="1" stop-color="#01FE84"/>
</radialGradient>
</defs>
</svg>
